# xmcd
#
# Track frame offsets:
#	150
#	11348
#	20822
#	31055
#	41210
#	51265
#	60882
#	71738
#	80612
#	91573
#	101920
#	111996
#	122276
#	132999
#	142721
#	154792
#	167198
#	176594
#	188250
#	200210
#	212214
#	223515
#	235596
#	248380
#	261100
#	270959
#	283538
#
# Disc length: 3945 seconds
#
# Revision: 0
# Processed by: cddbd v1.5.2PL0 Copyright (c) Steve Scherf et al.
# Submitted via: EasyCDDAExtractor 2010.6.0.0
#
DISCID=6d0f671b
DTITLE=Davis Skeeter - Lost To A Geisha Girl
DYEAR=1900
DGENRE=
TTITLE0=He Left His Heart With Me
TTITLE1=Don't Let Your Lips Say Yes
TTITLE2=Lost To A Geisha Girl
TTITLE3=I'm Going Steady With A Heartache
TTITLE4=Walk Softly Darling
TTITLE5=I Need You All The Time
TTITLE6=Wave Bye Bye
TTITLE7=I Ain't A Talkin'
TTITLE8=Slave
TTITLE9=Set Him Free
TTITLE10=Devil's Doll
TTITLE11=Homebreaker
TTITLE12=Give Me Death
TTITLE13=Am I That Easy To Forget
TTITLE14=Wishful Thinking
TTITLE15=I Can't Help You (I'm Falling Too)
TTITLE16=No Never
TTITLE17=My Last Date With You
TTITLE18=Someone I'd Like To Forget
TTITLE19=Chained To A Memory
TTITLE20=Standing In The Shadows
TTITLE21=Under Your Spell Again
TTITLE22=Let Those Brown Eyes Smile At Me
TTITLE23=Just When I Needed You
TTITLE24=Have You Seen This Man
TTITLE25=Your Cheatin' Heart
TTITLE26=One You Slip Around With
EXTD=
EXTT0=
EXTT1=
EXTT2=
EXTT3=
EXTT4=
EXTT5=
EXTT6=
EXTT7=
EXTT8=
EXTT9=
EXTT10=
EXTT11=
EXTT12=
EXTT13=
EXTT14=
EXTT15=
EXTT16=
EXTT17=
EXTT18=
EXTT19=
EXTT20=
EXTT21=
EXTT22=
EXTT23=
EXTT24=
EXTT25=
EXTT26=
PLAYORDER=
